<?xml version="1.0" standalone="no"?>
<!DOCTYPE svg PUBLIC "-//W3C//DTD SVG 20010904//EN"
 "http://www.w3.org/TR/2001/REC-SVG-20010904/DTD/svg10.dtd">
<svg version="1.0" xmlns="http://www.w3.org/2000/svg"
 width="223.000000pt" height="76.000000pt" viewBox="0 0 223.000000 76.000000"
 preserveAspectRatio="xMidYMid meet">

<g transform="translate(0.000000,76.000000) scale(0.100000,-0.100000)"
fill="#000000" stroke="none">
<path d="M158 542 c-75 -65 -140 -120 -143 -123 -6 -7 279 -249 293 -249 10 0
67 58 61 63 -29 23 -216 172 -222 177 -4 3 42 46 103 95 60 48 110 93 110 100
0 14 -42 55 -56 54 -5 0 -71 -53 -146 -117z"/>
<path d="M1885 630 l-28 -30 29 -22 c109 -86 189 -156 189 -165 0 -6 -49 -50
-108 -98 l-109 -87 28 -29 c15 -16 31 -29 35 -29 6 0 252 200 287 234 11 11
-14 35 -132 134 -80 67 -149 122 -154 122 -4 0 -21 -13 -37 -30z"/>
<path d="M766 570 c-16 -5 -39 -19 -51 -30 l-23 -22 -4 24 c-3 21 -9 23 -60
26 l-58 3 0 -231 0 -230 60 0 60 0 0 153 c0 146 1 155 23 175 32 30 77 44 114
37 l33 -6 0 49 c0 43 -3 50 -22 56 -28 7 -35 7 -72 -4z"/>
<path d="M1383 551 c-49 -23 -83 -71 -83 -118 0 -83 43 -118 168 -140 79 -13
122 -33 122 -55 0 -4 -9 -17 -20 -28 -29 -29 -121 -28 -183 3 l-46 24 -26 -37
c-14 -20 -25 -39 -25 -42 0 -3 24 -16 53 -28 62 -27 166 -37 225 -21 86 24
142 103 122 172 -18 63 -56 85 -178 105 -47 7 -92 20 -100 28 -19 19 -7 50 24
64 35 17 56 15 126 -9 l61 -20 23 28 c13 15 23 31 24 35 0 4 -19 17 -42 30
-62 31 -187 36 -245 9z"/>
<path d="M1036 219 c-50 -39 -22 -119 43 -119 63 0 89 81 39 123 -27 22 -49
22 -82 -4z"/>
</g>
</svg>
